<?xml version="1.0" encoding="iso-8859-1"?>
<!-- Generator: Adobe Illustrator 16.0.0, SVG Export Plug-In . SVG Version: 6.00 Build 0)  -->
<!DOCTYPE svg PUBLIC "-//W3C//DTD SVG 1.1//EN" "http://www.w3.org/Graphics/SVG/1.1/DTD/svg11.dtd">
<svg version="1.1" id="&#x5716;&#x5C64;_1" xmlns="http://www.w3.org/2000/svg" xmlns:xlink="http://www.w3.org/1999/xlink" x="0px"
	 y="0px" width="20.313px" height="20.063px" viewBox="0 0 20.313 20.063" style="enable-background:new 0 0 20.313 20.063;"
	 xml:space="preserve">
<path style="fill:#FFFFFF;stroke:#FFFFFF;stroke-width:0.5;stroke-miterlimit:10;" d="M19.401,17.998l-4.45-4.451
	c1.103-1.345,1.769-3.068,1.769-4.945c0-4.307-3.495-7.802-7.802-7.802c-4.311,0-7.802,3.495-7.802,7.802
	c0,4.307,3.491,7.801,7.802,7.801c1.878,0,3.597-0.661,4.941-1.764l4.45,4.447c0.303,0.302,0.79,0.302,1.092,0
	C19.704,18.787,19.704,18.296,19.401,17.998L19.401,17.998z M8.918,14.851c-3.45,0-6.252-2.803-6.252-6.249s2.802-6.253,6.252-6.253
	c3.445,0,6.252,2.807,6.252,6.253S12.363,14.851,8.918,14.851L8.918,14.851z M8.918,14.851"/>
<rect x="1.116" y="0.8" style="fill:none;" width="18.512" height="18.513"/>
</svg>
